PathFileType  4	(X/Y/Z) C:\Users\antoi\Documents\MyRepositories\mobilecap\ResultsAnalysis
DataRate	CameraRate	NumFrames	NumMarkers	Units	OrigDataRate	OrigDataStartFrame	OrigNumFrames
100.0	100.0	4	51	mm	100.0	100	133
Frame#	Time	r_knee			r_shank_antsup			r_ankle			r_calc			r_5meta			r_toe			L_knee			L_shank_antsup			L_ankle			L_calc			L_5meta			L_toe			r_sh2			r_sh3			r_sh4			L_sh2			L_sh3			r_thigh1			r_thigh2			r_thigh3			r_thigh4			r_thigh5			L_thigh1			L_thigh2			L_thigh3			L_thigh4			r.ASIS			r.PSIS			L.ASIS			L.PSIS			C7			R_Shoulder			L_Shoulder			R_Sternum			L_Sternum			R_humerus			R_elbow_med			R_elbow_lat			R_forearm			R_wrist_radius			R_wrist_ulna			L_humerus			L_elbow_med			L_elbow_lat			L_forearm			L_wrist_radius			L_wrist_ulna			R_HJC			L_HJC			R_HJC_reg			L_HJC_reg			
		X1	Y1	Z1	X2	Y2	Z2	X3	Y3	Z3	X4	Y4	Z4	X5	Y5	Z5	X6	Y6	Z6	X7	Y7	Z7	X8	Y8	Z8	X9	Y9	Z9	X10	Y10	Z10	X11	Y11	Z11	X12	Y12	Z12	X13	Y13	Z13	X14	Y14	Z14	X15	Y15	Z15	X16	Y16	Z16	X17	Y17	Z17	X18	Y18	Z18	X19	Y19	Z19	X20	Y20	Z20	X21	Y21	Z21	X22	Y22	Z22	X23	Y23	Z23	X24	Y24	Z24	X25	Y25	Z25	X26	Y26	Z26	X27	Y27	Z27	X28	Y28	Z28	X29	Y29	Z29	X30	Y30	Z30	X31	Y31	Z31	X32	Y32	Z32	X33	Y33	Z33	X34	Y34	Z34	X35	Y35	Z35	X36	Y36	Z36	X37	Y37	Z37	X38	Y38	Z38	X39	Y39	Z39	X40	Y40	Z40	X41	Y41	Z41	X42	Y42	Z42	X43	Y43	Z43	X44	Y44	Z44	X45	Y45	Z45	X46	Y46	Z46	X47	Y47	Z47	X48	Y48	Z48	X49	Y49	Z49	X50	Y50	Z50	X51	Y51	Z51	

100	0.99000000	1298.23832	527.86815	-41.51404	1344.09272	469.09215	-65.27468	1328.16216	124.00109	-32.15112	1258.82864	79.72212	-46.94450	1444.45711	76.33220	-35.35929	1470.17374	111.25849	-100.35766	1038.56537	498.63942	-299.95406	1052.07618	397.30374	-297.26184	921.93552	111.22061	-269.49497	840.84154	78.77100	-238.75923	1022.15438	40.91909	-292.23480	1054.74512	59.88655	-228.65661	1342.30815	357.30251	-30.86757	1274.76953	474.85403	-19.67592	1271.38732	363.05100	-6.67945	968.13208	426.41918	-313.81600	939.64672	307.43076	-314.32286	1233.12289	840.13652	-11.69057	1272.52888	732.89530	-23.88938	1233.83876	693.52916	12.87456	1133.21071	798.35859	21.08932	1176.24943	689.81956	8.18572	1113.04072	754.59543	-356.78285	1099.49771	621.73506	-324.72870	1004.52277	770.79748	-321.56078	994.21482	632.13126	-300.56698	1193.36213	983.03427	-52.31489	1001.78026	1008.68386	-114.11197	1189.30519	953.12879	-301.07385	990.02610	1011.14391	-214.33937	1012.24759	1427.23474	-203.96570	1108.63787	1389.49952	-23.88014	1090.89214	1385.62367	-378.93114	1148.68979	1386.37994	-180.84394	1154.76538	1386.31151	-223.81414	1111.12557	1261.19011	49.41799	1026.52658	1055.23064	40.25377	1056.84280	1076.25315	102.85390	1133.80355	954.62383	106.54686	1172.03395	826.23206	110.29368	1155.63855	820.91014	141.87521	1126.16053	1275.20353	-439.64390	1095.52954	1034.95551	-413.95006	1141.33448	1064.08384	-472.90201	1220.91733	984.86574	-433.15101	1293.15122	845.71915	-412.14407	1290.53186	842.92808	-446.29570	1120.84235	898.93072	-61.86608	1107.61674	883.20993	-267.31592	1133.56655	887.95521	-81.25474	1114.30958	891.98575	-245.46675	
101	1.00000000	1307.14919	525.47553	-41.13663	1355.71572	469.31878	-66.76955	1357.96026	123.50820	-32.86759	1290.67130	75.16517	-45.54554	1476.53725	82.49259	-39.02583	1498.20849	118.10626	-104.98160	1042.62193	498.40397	-299.86490	1055.29575	396.83230	-297.35933	922.41262	111.89456	-269.25336	841.27778	79.76036	-238.47521	1022.22184	40.91009	-292.24844	1055.03746	59.69367	-228.71487	1360.34483	357.55931	-32.18250	1287.54033	471.94009	-18.99505	1289.90842	360.08542	-5.75219	971.58538	426.80480	-313.52431	941.92796	308.15463	-313.94716	1244.82411	838.16023	-11.24741	1281.94630	729.71163	-24.14843	1243.46099	691.29228	13.35509	1144.21054	797.54480	21.87123	1185.62753	688.19291	9.11132	1120.53785	753.19454	-357.08739	1105.10867	620.66118	-324.89038	1012.85159	771.24653	-320.15147	1000.25373	632.60736	-299.71181	1205.19829	981.98988	-52.18437	1013.16859	1006.95319	-112.78803	1199.30554	951.38039	-300.82994	1000.72242	1009.26606	-212.97232	1023.40272	1425.68700	-203.61912	1119.74151	1387.68751	-23.51278	1102.44445	1384.02423	-378.65060	1159.92047	1384.64224	-180.50351	1166.05702	1384.51465	-223.48052	1121.25002	1259.50921	50.03739	1035.03110	1054.25695	40.91914	1065.09161	1075.22330	103.63970	1140.62821	952.75565	108.44053	1176.95997	823.66468	112.93882	1160.70523	818.94723	144.76391	1138.98371	1273.87762	-439.02839	1110.88993	1033.25159	-413.04869	1156.59938	1062.94528	-471.84037	1237.32702	985.41216	-430.97362	1312.44138	848.09034	-408.42424	1309.69834	844.76670	-442.45967	1132.77015	897.67902	-61.05382	1118.13907	881.37923	-266.36127	1145.42272	886.47173	-80.59304	1125.03928	890.26039	-244.68032	
102	1.01000000	1316.24505	523.09466	-40.45217	1367.09666	469.28043	-67.90914	1384.97564	123.51735	-33.97447	1319.70661	71.62982	-44.84101	1505.26277	88.53919	-42.82260	1523.26178	124.62414	-109.56878	1047.43234	497.95401	-299.72568	1059.17382	396.13224	-297.38115	922.98424	112.62880	-269.06710	841.77866	80.89961	-238.23680	1022.30487	40.88594	-292.27203	1055.35834	59.47433	-228.77794	1377.27444	357.74947	-33.35677	1300.16900	469.23843	-18.12774	1307.50182	357.50042	-4.90706	975.77269	427.06854	-313.26011	944.72467	308.81381	-313.60567	1256.33714	836.09009	-10.95912	1291.49417	726.62848	-24.20147	1253.25290	689.12063	14.10478	1155.29853	796.66375	22.82131	1195.28703	686.62732	10.30907	1128.33476	751.67547	-357.42439	1111.27859	619.45013	-325.08227	1021.36773	771.39058	-318.86281	1006.84930	632.76230	-298.92743	1217.16416	980.75757	-52.03649	1024.64473	1005.11239	-111.45235	1209.34693	949.53902	-300.58743	1011.46928	1007.24865	-211.58219	1034.61294	1424.02929	-203.17188	1130.94133	1385.74555	-23.02542	1114.01604	1382.29705	-378.27289	1171.22203	1382.80628	-180.06039	1177.38210	1382.60746	-223.05258	1131.51498	1257.68631	50.74234	1043.76967	1053.11032	41.62773	1073.55854	1074.03840	104.44698	1147.67785	950.75814	110.34858	1182.18816	821.05868	115.58727	1166.01161	816.89349	147.62714	1151.85654	1272.42342	-438.24457	1126.04446	1031.47516	-412.07650	1171.68486	1061.72102	-470.69177	1253.50619	985.84094	-428.74886	1331.29121	850.31531	-404.65680	1328.47114	846.50713	-438.59553	1144.78599	896.26500	-60.26469	1128.71758	879.44045	-265.42079	1157.36072	884.90400	-79.87117	1135.78789	888.40312	-243.83380	
103	1.02000000	1325.67610	520.80735	-39.53686	1378.27526	468.91069	-68.57887	1408.74534	123.63340	-35.41473	1345.33226	68.82529	-44.88682	1530.24987	93.78815	-46.54307	1545.15893	130.25796	-113.85343	1053.07716	497.28618	-299.51186	1063.75532	395.19705	-297.30650	923.71362	113.48431	-268.92907	842.37270	82.26279	-238.03625	1022.41108	40.85317	-292.30019	1055.73574	59.22709	-228.84777	1392.92043	357.68220	-34.29189	1312.50418	466.69960	-17.14600	1323.86330	355.16314	-4.21667	980.75442	427.23334	-312.98506	948.09751	309.42734	-313.28209	1267.65921	834.00768	-10.97324	1301.39836	723.87115	-24.11824	1263.44574	687.17115	15.02728	1166.59491	795.76458	23.92833	1205.47224	685.26141	11.74995	1136.47061	750.07975	-357.72458	1118.07412	618.12937	-325.24201	1030.10105	771.21853	-317.70194	1014.07590	632.59210	-298.16326	1229.23570	979.35902	-51.90301	1036.18548	1003.23608	-110.09597	1219.46190	947.63183	-300.38848	1022.26514	1005.15031	-210.15935	1045.88484	1422.30611	-202.61303	1142.24703	1383.71810	-22.41163	1125.60202	1380.50138	-377.79733	1182.60602	1380.92827	-179.52031	1188.75629	1380.65061	-222.52948	1141.92854	1255.76265	51.53875	1052.75657	1051.81687	42.39340	1082.26747	1072.73329	105.28788	1154.97586	948.66052	112.27687	1187.76003	818.45932	118.25156	1171.55550	814.76747	150.43170	1164.73755	1270.89836	-437.27905	1140.93995	1029.68184	-411.05311	1186.58871	1060.47773	-469.45081	1269.45111	986.21099	-426.47587	1349.61536	852.39310	-400.85683	1346.80980	848.17666	-434.72707	1156.86981	894.72433	-59.51633	1139.33019	877.44100	-264.51283	1169.33295	883.31282	-79.11746	1146.54108	886.44842	-242.96526	
